<?xml version="1.0" encoding="utf-8"?><svg xml:space="preserve" viewBox="0 0 100 100" y="0" x="0" xmlns="http://www.w3.org/2000/svg" id="圖層_1" version="1.1" width="128px" height="128px" xmlns:xlink="http://www.w3.org/1999/xlink" style="width:100%;height:100%;background-size:initial;background-repeat-y:initial;background-repeat-x:initial;background-position-y:initial;background-position-x:initial;background-origin:initial;background-image:initial;background-color:rgb(255, 255, 255);background-clip:initial;background-attachment:initial;animation-play-state:paused" ><g class="ldl-scale" style="transform-origin:50% 50%;transform:rotate(0deg) scale(0.8, 0.8);animation-play-state:paused" ><path fill="#333" d="M79.56 44.421l-1.166-4.371a.077.077 0 0 1 .035-.087l8.566-5.181a39.941 39.941 0 0 0-5.328-9.206l-8.771 4.828a.076.076 0 0 1-.09-.013l-3.197-3.197a.076.076 0 0 1-.013-.09l4.828-8.771a39.941 39.941 0 0 0-9.206-5.328l-5.181 8.566a.077.077 0 0 1-.087.035l-4.371-1.166a.076.076 0 0 1-.056-.072l-.204-10.005C53.577 10.131 51.804 10 50 10s-3.577.131-5.318.363l-.204 10.005a.077.077 0 0 1-.056.072l-4.371 1.166a.077.077 0 0 1-.087-.035l-5.181-8.566a39.941 39.941 0 0 0-9.206 5.328l4.828 8.771a.076.076 0 0 1-.013.09l-3.197 3.197a.076.076 0 0 1-.09.013l-8.771-4.828a39.941 39.941 0 0 0-5.328 9.206l8.566 5.181c.03.018.044.053.035.087l-1.166 4.371a.076.076 0 0 1-.072.056l-10.005.204C10.131 46.423 10 48.196 10 50s.131 3.577.363 5.318l10.005.204a.077.077 0 0 1 .072.056l1.166 4.371a.077.077 0 0 1-.035.087l-8.566 5.181a39.941 39.941 0 0 0 5.328 9.206l8.771-4.828a.076.076 0 0 1 .09.013l3.197 3.197a.076.076 0 0 1 .013.09l-4.828 8.771a39.941 39.941 0 0 0 9.206 5.328l5.181-8.566a.077.077 0 0 1 .087-.035l4.371 1.166a.076.076 0 0 1 .056.072l.204 10.005c1.742.233 3.515.364 5.319.364s3.577-.131 5.318-.363l.204-10.005a.077.077 0 0 1 .056-.072l4.371-1.166a.077.077 0 0 1 .087.035l5.181 8.566a39.941 39.941 0 0 0 9.206-5.328l-4.828-8.771a.076.076 0 0 1 .013-.09l3.197-3.197a.076.076 0 0 1 .09-.013l8.771 4.828a39.941 39.941 0 0 0 5.328-9.206l-8.566-5.181a.077.077 0 0 1-.035-.087l1.166-4.371a.076.076 0 0 1 .072-.056l10.005-.204C89.869 53.577 90 51.804 90 50s-.131-3.577-.363-5.318l-10.005-.204a.077.077 0 0 1-.072-.057zm-11.753-8.166l-11.313 6.531L53 40.768V27.705a22.47 22.47 0 0 1 14.807 8.55zM50 54.036l-3.495-2.018v-4.036L50 45.964l3.495 2.018v4.036L50 54.036zm-3-26.331v13.063l-3.495 2.018-11.312-6.531A22.47 22.47 0 0 1 47 27.705zM27.5 50c0-3.028.602-5.915 1.687-8.552l11.318 6.534v4.036l-11.318 6.534A22.423 22.423 0 0 1 27.5 50zm4.693 13.745l11.312-6.531L47 59.232v13.063a22.47 22.47 0 0 1-14.807-8.55zM53 72.295V59.232l3.495-2.018 11.312 6.531A22.47 22.47 0 0 1 53 72.295zm17.813-13.743l-11.318-6.534v-4.036l11.318-6.534C71.898 44.085 72.5 46.972 72.5 50s-.602 5.915-1.687 8.552z" style="fill:rgb(51, 51, 51);animation-play-state:paused" ></path>
<metadata xmlns:d="https://loading.io/stock/" style="animation-play-state:paused" ><d:name style="animation-play-state:paused" >gear</d:name>


<d:tags style="animation-play-state:paused" >setting,profile,customize,wheel,pinion,gear</d:tags>


<d:license style="animation-play-state:paused" >by</d:license>


<d:slug style="animation-play-state:paused" >me8yt7</d:slug></metadata></g><!-- generated by https://loading.io/ --></svg>